<svg xmlns="http://www.w3.org/2000/svg" version="1.1" xmlns:xlink="http://www.w3.org/1999/xlink" xmlns:svgjs="http://svgjs.dev/svgjs" width="1000" height="707" viewBox="0 0 1000 707"><g transform="matrix(1,0,0,1,-0.6060606060606233,0.0009318939085574129)"><svg viewBox="0 0 396 280" data-background-color="#fefee2" preserveAspectRatio="xMidYMid meet" height="707" width="1000" xmlns="http://www.w3.org/2000/svg" xmlns:xlink="http://www.w3.org/1999/xlink"><g id="tight-bounds" transform="matrix(1,0,0,1,0.2400000000000091,0.00007609069658087719)"><svg viewBox="0 0 395.52 280" height="280" width="395.52"><g><svg viewBox="0 0 395.52 280" height="280" width="395.52"><g><svg viewBox="0 0 395.52 280" height="280" width="395.52"><g><svg viewBox="0 0 395.52 280" height="280" width="395.52"><g><svg viewBox="0 0 395.52 280" height="280" width="395.52"><g transform="matrix(1,0,0,1,160.0460712768923,74.00336708925556)"><svg viewBox="0 0 75.4278574462154 131.99326582148888" height="131.99326582148888" width="75.4278574462154"><g><svg xmlns="http://www.w3.org/2000/svg" xmlns:xlink="http://www.w3.org/1999/xlink" version="1.1" x="0" y="0" viewBox="38 53.007999420166016 24.000999450683594 42.000003814697266" enable-background="new 0 0 100 100" xml:space="preserve" height="131.99326582148888" width="75.4278574462154" class="icon-o-0" data-fill-palette-color="accent" id="o-0"><path d="M60.007 53.008H39.993c-1.101 0-1.993 0.896-1.993 2.001v37.998c0 1.104 0.892 2.001 1.993 2.001h20.015c1.1 0 1.993-0.896 1.993-2.001V55.009C62 53.905 61.107 53.008 60.007 53.008zM58.014 57.01v29.997H41.985V57.01H58.014zM50 93.007c-1.104 0-2-0.895-2-2 0-1.104 0.896-2 2-2 1.104 0 1.997 0.896 1.997 2C51.997 92.113 51.104 93.007 50 93.007z" fill="#7fc37e" data-fill-palette-color="accent"></path></svg></g></svg></g><path d="M62.123 104.877L64.207 101.331 86.392 109.345 85.904 113.181 87.08 113.754 94.449 93.353 88.089 90.348 87.396 91.566 91.973 95.267 87.954 106.393 77.044 102.452 79.345 96.081 83.451 96.962 83.717 95.496 75.784 91.849 75.471 93.446 77.876 95.265 75.484 101.888 64.872 98.055 68.692 87.481 73.947 88.661 74.643 87.318 68.172 84.242 60.949 104.241ZM78.849 67.367L81.49 65.252 108.013 73.92 109.036 71.825 94.394 48.325 95.595 45.59 94.676 44.733 88.924 52.212 89.831 53.085 92.994 50.293 105.009 69.355 83.684 62.253 85.418 58.825 84.523 57.936 77.954 66.478ZM109.652 32.918L113.405 31.236 126.841 50.623 124.22 53.466 124.847 54.615 142.675 42.259 139.233 36.125 137.963 36.716 139.547 42.385 129.825 49.123 123.217 39.588 128.785 35.73 131.62 38.828 132.687 37.786 128.335 30.217 127.154 31.337 128.06 34.214 122.273 38.225 115.846 28.952 125.086 22.548 128.685 26.555 130.031 25.864 126.54 19.607 109.063 31.719ZM163.748 33.957L163.525 32.527 159.048 33.194 155.959 23.431 160.097 22.122 166.037 27.493C167.691 28.969 169.199 30.023 170.558 30.656 171.918 31.288 173.271 31.391 174.615 30.966V30.966C175.057 30.826 175.432 30.683 175.74 30.537 176.042 30.393 176.383 30.177 176.764 29.89V29.89L176.642 28.679 175.674 28.683C174.912 28.688 174.211 28.58 173.571 28.359 172.934 28.144 172.196 27.766 171.358 27.225 170.521 26.685 169.382 25.861 167.941 24.754V24.754L162.167 20.3 162.158 20.272C163.917 18.764 165.082 17.211 165.653 15.614 166.232 14.02 166.285 12.476 165.811 10.98V10.98C165.124 8.808 163.739 7.469 161.654 6.962 159.57 6.454 157.073 6.661 154.163 7.582V7.582C152.724 8.038 151.307 8.576 149.913 9.198 148.514 9.821 146.904 10.594 145.085 11.517V11.517L145.254 12.776 148.96 12.208 155.914 34.185 152.722 36.081 152.925 37.381ZM151.71 10.004C151.852 9.945 152.173 9.82 152.674 9.626 153.178 9.439 153.707 9.258 154.263 9.082V9.082C155.626 8.65 156.876 8.519 158.013 8.687 159.158 8.859 160.133 9.308 160.938 10.032 161.742 10.75 162.338 11.721 162.725 12.946V12.946C163.171 14.354 163.116 15.729 162.562 17.071 162.015 18.417 161.163 19.531 160.004 20.412V20.412L155.459 21.85ZM200.034 28.959C201.51 28.949 202.922 28.692 204.27 28.187 205.617 27.675 206.795 27.041 207.803 26.287 208.811 25.525 209.604 24.756 210.182 23.977V23.977L209.518 22.71C208.472 23.789 207.256 24.691 205.871 25.415 204.491 26.139 203.057 26.506 201.567 26.515V26.515C199.581 26.528 197.82 26.046 196.284 25.07 194.742 24.1 193.527 22.664 192.641 20.763 191.755 18.861 191.303 16.577 191.286 13.908V13.908C191.271 11.538 191.645 9.427 192.407 7.574 193.177 5.722 194.22 4.279 195.538 3.244 196.856 2.216 198.306 1.697 199.888 1.686V1.686C202.629 1.669 204.631 2.47 205.893 4.091V4.091L206.731 9.449 208.252 9.658 208.9 2.165C206.95 0.701 204.33-0.021 201.039 0V0C198.086 0.019 195.602 0.794 193.585 2.323 191.569 3.845 190.072 5.765 189.093 8.082 188.122 10.399 187.643 12.737 187.659 15.094V15.094C187.677 17.941 188.232 20.414 189.325 22.512 190.418 24.617 191.902 26.22 193.776 27.32 195.657 28.427 197.743 28.973 200.034 28.959ZM220.915 30.156L241.235 36.003 244.016 29.103 242.705 28.488 238.798 33.555 228.337 30.545 234.994 7.409 238.963 7.765 239.475 6.559 228.69 3.456 228.139 4.651 231.771 6.575 225.268 29.176 221.446 28.955ZM265.974 18.605L268.978 21.413 256.306 41.309 252.67 39.993 251.854 41.016 270.149 52.668 274.472 47.12 273.435 46.177 268.822 49.833 258.845 43.479 265.077 33.695 270.79 37.333 269.032 41.147 270.405 41.728 275.699 34.784 274.209 34.129 271.907 36.078 265.968 32.296 272.029 22.779 281.512 28.819 279.211 33.689 280.369 34.662 284.786 29.021 266.851 17.598ZM278.544 60.172L284.749 67.619 285.979 66.892 283.877 63.253 291.933 60.354 298.018 67.656 293.71 74.852 290.562 72.563 289.416 73.22 296.028 81.156 297.241 80.378 295.842 77.613 310.233 53.924 308.403 52.488 282.463 61.354 279.658 59.477ZM293.692 59.703L305.492 55.495 299.032 66.113ZM305.34 101.167L306.751 100.847 305.782 96.426 315.313 92.681 316.9 96.721 311.945 103.011C310.584 104.762 309.634 106.338 309.096 107.737 308.557 109.137 308.546 110.493 309.062 111.806V111.806C309.231 112.237 309.399 112.601 309.566 112.899 309.73 113.19 309.969 113.516 310.281 113.877V113.877L311.481 113.672 311.411 112.707C311.355 111.947 311.415 111.24 311.592 110.587 311.763 109.937 312.09 109.175 312.573 108.303 313.055 107.43 313.799 106.238 314.806 104.725V104.725L318.858 98.662 318.885 98.651C320.509 100.304 322.138 101.36 323.77 101.822 325.399 102.291 326.944 102.239 328.404 101.665V101.665C330.524 100.832 331.766 99.359 332.131 97.245 332.495 95.131 332.119 92.654 331.003 89.813V89.813C330.451 88.408 329.817 87.031 329.103 85.683 328.386 84.329 327.505 82.775 326.461 81.023V81.023L325.216 81.277 326.035 84.936 304.58 93.367 302.472 90.311 301.188 90.601ZM328.42 87.531C328.488 87.668 328.636 87.979 328.863 88.467 329.083 88.956 329.3 89.472 329.513 90.014V90.014C330.037 91.345 330.253 92.584 330.162 93.729 330.068 94.883 329.687 95.886 329.019 96.739 328.357 97.59 327.428 98.25 326.233 98.72V98.72C324.859 99.26 323.483 99.299 322.106 98.837 320.726 98.383 319.557 97.608 318.6 96.512V96.512L316.856 92.075ZM93.985 171.806L94.668 175.953 72.041 184.175 69.903 180.852 68.614 181.172 76.175 201.979 83.12 200.185 82.881 198.771 76.861 198.866 72.737 187.515 83.873 183.469 86.234 189.966 82.444 191.955 83.193 193.289 91.793 190.957 91 189.502 87.915 189.65 85.46 182.892 96.297 178.954 100.218 189.745 95.328 192.251 95.654 193.76 102.737 191.937 95.326 171.54ZM105.759 200.005L107.165 203.161 91.691 227.087 93.487 228.636 120.507 220.313 122.895 222.222 123.976 221.526 118.092 213.898 116.993 214.57 118.932 218.418 96.975 225.319 109.546 206.103 112.48 208.719 113.592 208.062 106.871 199.349ZM128.874 227.375L131.831 230.362 118.139 250.164 114.473 248.691 113.607 249.699 131.816 262.289 136.441 256.805 135.428 255.791 130.574 259.353 120.64 252.485 127.379 242.739 133.064 246.67 131.126 250.486 132.509 251.14 138.172 244.261 136.683 243.533 134.253 245.44 128.339 241.35 134.897 231.866 144.34 238.396 141.803 243.27 142.942 244.312 147.663 238.725 129.813 226.383ZM157.881 272.977L158.538 271.653 154.413 269.579 157.561 259.616 161.775 260.948 163.59 268.917C164.109 271.122 164.749 272.887 165.511 274.211 166.271 275.541 167.342 276.425 168.725 276.861V276.861C169.173 277.003 169.566 277.103 169.901 277.16 170.244 277.22 170.658 277.239 171.143 277.219V277.219L171.745 276.139 170.944 275.573C170.307 275.129 169.785 274.627 169.379 274.068 168.972 273.509 168.577 272.759 168.194 271.819 167.81 270.878 167.343 269.522 166.791 267.751V267.751L164.581 260.637 164.587 260.618C166.946 260.384 168.831 259.768 170.244 258.77 171.662 257.774 172.612 256.515 173.093 254.993V254.993C173.795 252.771 173.423 250.838 171.978 249.194 170.538 247.552 168.329 246.26 165.349 245.318V245.318C163.884 244.855 162.387 244.473 160.858 244.17 159.32 243.872 157.523 243.571 155.466 243.269V243.269L154.862 244.421 158.3 246.133 151.212 268.568 147.416 268.285 146.829 269.485ZM161.893 245.903C162.042 245.937 162.381 246.019 162.909 246.151 163.443 246.285 163.994 246.442 164.562 246.622V246.622C165.951 247.06 167.072 247.689 167.924 248.507 168.779 249.318 169.332 250.26 169.583 251.333 169.833 252.411 169.76 253.576 169.365 254.826V254.826C168.912 256.259 168.059 257.378 166.804 258.183 165.558 258.984 164.19 259.413 162.7 259.47V259.47L158.069 258.006ZM199.934 280C201.437 280.01 202.879 279.764 204.26 279.263 205.64 278.762 206.853 278.131 207.897 277.37 208.935 276.609 209.755 275.836 210.356 275.052V275.052L209.699 273.747C208.612 274.832 207.358 275.738 205.937 276.464 204.515 277.183 203.046 277.537 201.53 277.527V277.527C199.504 277.514 197.709 276.999 196.147 275.982 194.584 274.972 193.366 273.488 192.491 271.529 191.617 269.576 191.188 267.239 191.206 264.518V264.518C191.222 262.095 191.63 259.942 192.43 258.06 193.237 256.179 194.319 254.722 195.677 253.692 197.041 252.661 198.528 252.151 200.136 252.162V252.162C202.937 252.18 204.971 253.021 206.238 254.685V254.685L207.026 260.172 208.574 260.411 209.33 252.768C207.366 251.246 204.703 250.473 201.34 250.451V250.451C198.327 250.432 195.779 251.19 193.697 252.725 191.621 254.255 190.069 256.194 189.04 258.545 188.012 260.895 187.49 263.272 187.474 265.676V265.676C187.455 268.582 187.991 271.118 189.083 273.284 190.168 275.443 191.663 277.098 193.569 278.25 195.469 279.401 197.59 279.984 199.934 280ZM226.015 276.999L246.771 271.05 245.433 263.571 243.967 263.754 243.331 270.259 232.648 273.321 225.872 249.682 229.497 247.837 229.285 246.524 218.277 249.679 218.441 251.006 222.634 250.713 229.249 273.789 225.823 275.68ZM247.398 241.215L251.302 239.656 264.197 259.986 261.411 262.788 262.001 263.978 280.695 252.12 277.449 245.723 276.12 246.26 277.508 252.119 267.309 258.588 260.963 248.583 266.8 244.88 269.558 248.153 270.7 247.134 266.573 239.238 265.322 240.325 266.13 243.305 260.058 247.157 253.882 237.419 263.578 231.27 267.077 235.507 268.48 234.864 265.176 228.339 246.851 239.962ZM293.226 241.016L299.581 233.423 298.624 232.324 295.359 235.095 290.971 227.525 297.2 220.084 305.216 223.103 303.49 226.696 304.356 227.719 311.126 219.631 310.128 218.549 307.605 220.465 281.182 210.316 280.071 212.416 293.696 236.864 292.328 240.032ZM290.001 225.883L283.624 214.795 295.471 219.349ZM323.482 194.531L322.209 193.781 319.847 197.749 310.133 193.904 311.759 189.795 319.836 188.548C322.073 188.187 323.878 187.674 325.253 187.007 326.634 186.343 327.591 185.337 328.125 183.989V183.989C328.298 183.552 328.425 183.168 328.506 182.837 328.59 182.499 328.639 182.088 328.653 181.602V181.602L327.618 180.925 326.997 181.684C326.509 182.288 325.971 182.773 325.385 183.139 324.799 183.505 324.023 183.846 323.057 184.162 322.092 184.478 320.707 184.848 318.901 185.272V185.272L311.648 186.973 311.629 186.966C311.563 184.597 311.082 182.672 310.186 181.193 309.293 179.707 308.105 178.671 306.621 178.083V178.083C304.454 177.225 302.5 177.459 300.757 178.785 299.017 180.104 297.572 182.217 296.422 185.123V185.123C295.857 186.551 295.369 188.017 294.959 189.521 294.552 191.034 294.125 192.805 293.677 194.835V194.835L294.785 195.519 296.735 192.211 318.612 200.871 318.061 204.637 319.216 205.308ZM296.761 188.611C296.805 188.464 296.911 188.133 297.08 187.616 297.251 187.093 297.447 186.554 297.666 186V186C298.202 184.645 298.909 183.572 299.785 182.779 300.655 181.984 301.634 181.5 302.721 181.325 303.815 181.152 304.971 181.307 306.19 181.79V181.79C307.588 182.343 308.644 183.274 309.358 184.582 310.068 185.881 310.399 187.276 310.35 188.767V188.767L308.563 193.283ZM62.592 144.102C62.592 138.112 67.448 133.255 73.439 133.255 79.429 133.255 84.286 138.112 84.286 144.102 84.286 150.093 79.429 154.949 73.439 154.949 67.448 154.949 62.592 150.093 62.592 144.102ZM312.878 144.102C312.878 138.112 317.734 133.255 323.725 133.255 329.715 133.255 334.571 138.112 334.571 144.102 334.571 150.093 329.715 154.949 323.725 154.949 317.734 154.949 312.878 150.093 312.878 144.102Z" fill="#7fc37e" data-fill-palette-color="primary"></path></svg></g></svg></g></svg></g></svg></g><defs></defs></svg><rect width="395.52" height="280" fill="none" stroke="none" visibility="hidden"></rect></g></svg></g></svg>